<?xml version="1.0" encoding="utf-8"?>
<!-- Generator: Adobe Illustrator 27.1.1, SVG Export Plug-In . SVG Version: 6.00 Build 0)  -->
<svg version="1.1" id="Layer_1" xmlns="http://www.w3.org/2000/svg" xmlns:xlink="http://www.w3.org/1999/xlink" x="0px" y="0px"
	 viewBox="0 0 1890.8 661.9" style="enable-background:new 0 0 1890.8 661.9;" xml:space="preserve">
<style type="text/css">
	.st0{fill:#1D70B7;}
	.st1{fill:#FFFFFF;}
	.st2{fill:#D9D9D9;}
	.st3{fill:url(#SVGID_1_);}
	.st4{fill:url(#SVGID_00000145043059675401150480000005683212525113212080_);}
	.st5{fill:url(#SVGID_00000181075643608551624800000005341187967350530444_);}
	.st6{fill:url(#SVGID_00000165203726774367955020000004929600297598732454_);}
	.st7{fill:url(#SVGID_00000042715351263242496290000007632095204376354994_);}
	.st8{fill:url(#SVGID_00000076587330961956498690000000330204148565278902_);}
	.st9{fill:url(#SVGID_00000091715730175480493340000008899230114631743374_);}
	.st10{fill:url(#SVGID_00000029040403946785864920000008385370087540574343_);}
</style>
<g id="Layer_1_00000059278090030793147730000016479697296632774071_">
	<path class="st0" d="M352.1,606.9c4.7,0,8.7,1.8,12,5.3s5,7.8,5.1,12.7h-7.6c0-2.7-1-5.1-2.9-7.1s-4.1-2.9-6.7-2.9s-4.9,1-6.8,3
		s-2.8,4.4-2.8,7.1v18.8c0,2.8,0.9,5.2,2.8,7.1c1.9,2,4.1,3,6.8,3s4.9-1,6.8-3s2.8-4.4,2.8-7.2h7.6v0.1c0,5-1.7,9.3-5,12.9
		c-3.4,3.6-7.4,5.3-12,5.3c-4.7,0-8.8-1.8-12.1-5.3c-3.4-3.6-5-7.8-5-12.8V625c0-5,1.7-9.2,5-12.8
		C343.3,608.7,347.4,606.9,352.1,606.9z"/>
	<path class="st0" d="M452.2,606v37.3c0,2.8,1,5.3,2.9,7.3s4.2,3.1,6.9,3.1l9.7-0.1V606h7.7l-0.1,55.9l-17.4-0.1
		c-4.8,0-9-1.8-12.4-5.5c-3.4-3.6-5.1-8-5.1-13.1V606H452.2L452.2,606z"/>
	<path class="st0" d="M556.1,653.7h8.5c5.6,0,9.5-0.3,11.4-1c4-1.4,6-4.5,6-9.3v-6.1h-26v-12.9c0-5,1.7-9.4,5.2-13s7.6-5.4,12.4-5.4
		h16.2v8.1H581c-5.6,0-9.4,0.4-11.2,1.1c-3.9,1.4-5.9,4.5-5.9,9.2v5.5H581h8.8v13.5c0,5.1-1.7,9.4-5.2,13c-3.4,3.6-7.6,5.5-12.4,5.5
		h-16.1V653.7z"/>
	<path class="st0" d="M691.8,606v8.2h-9.6V662h-7.5v-47.9H665V606H691.8z"/>
	<path class="st0" d="M801.4,643.6c0,5.1-1.7,9.4-5.1,13s-7.5,5.4-12.3,5.4s-8.9-1.8-12.3-5.4c-3.4-3.6-5.1-8-5.1-13v-20
		c0-5,1.7-9.3,5.1-13c3.4-3.6,7.5-5.5,12.3-5.5s8.9,1.8,12.3,5.5c3.4,3.6,5.1,8,5.1,13V643.6z M793.6,643.6v-20c0-2.8-1-5.2-2.8-7.2
		c-1.9-2-4.2-3-6.8-3s-4.9,1-6.8,3c-1.9,2-2.8,4.4-2.8,7.2v20c0,2.8,1,5.2,2.8,7.2s4.2,3,6.8,3s4.9-1,6.8-3S793.6,646.4,793.6,643.6
		z"/>
	<path class="st0" d="M885.2,662h-7.9v-56.5c0-0.1,0-0.1,0-0.1h7.9l0,0c0,0.1,0,0.1,0,0l15,31.2l15-31c0,0,0.1,0,0.1-0.1l7.9-0.1
		v0.1V662h-7.9v-40c-3.3,6.8-8.2,16.9-15,30.3c-3-5.3-8-15.4-15.1-30.3V662L885.2,662z"/>
	<path class="st0" d="M1118.6,661.9v-20.2h-19.4v20.2h-7.8v-37.4c0-5,1.7-9.4,5.2-13c3.4-3.6,7.6-5.5,12.4-5.5s8.9,1.8,12.3,5.5
		c3.4,3.6,5.2,8,5.2,13v37.4H1118.6z M1118.6,634.7v-10.1c0-2.8-0.9-5.2-2.9-7.3c-1.9-2-4.2-3.1-6.8-3.1c-2.7,0-5,1-6.9,3.1
		c-1.9,2-2.9,4.5-2.9,7.3v10.1H1118.6z"/>
	<path class="st0" d="M1211.4,606v37.3c0,2.8,0.9,5.3,2.8,7.3s4.2,3.1,6.9,3.1l9.7-0.1V606h7.7l-0.1,55.9l-17.4-0.1
		c-4.8,0-9-1.8-12.4-5.5c-3.4-3.6-5.2-8-5.2-13.1V606H1211.4L1211.4,606z"/>
	<path class="st0" d="M1351.3,643.3c0,5.1-1.7,9.5-5.2,13.1s-7.6,5.4-12.4,5.4l-9.8,0.2v-0.2l-7.8,0.2v-56h7.8h9.8
		c4.8,0,8.9,1.8,12.4,5.5c3.4,3.7,5.2,8,5.2,13V643.3z M1324,614.2v39.5h9.8c2.6,0,4.9-1,6.9-3c1.9-2,2.9-4.5,2.9-7.3v-18.8
		c0-2.8-1-5.2-2.9-7.3c-1.9-2-4.2-3.1-6.9-3.1L1324,614.2L1324,614.2z"/>
	<path class="st0" d="M1429.1,605.8h8.1v56.1h-8.1V605.8z"/>
	<path class="st0" d="M1548.6,643.6c0,5.1-1.7,9.4-5.1,13s-7.5,5.4-12.3,5.4s-8.9-1.8-12.3-5.4c-3.4-3.6-5.1-8-5.1-13v-20
		c0-5,1.7-9.3,5.1-13c3.4-3.6,7.5-5.5,12.3-5.5s8.9,1.8,12.3,5.5c3.4,3.6,5.1,8,5.1,13V643.6z M1540.8,643.6v-20
		c0-2.8-0.9-5.2-2.8-7.2s-4.2-3-6.8-3c-2.6,0-4.9,1-6.8,3s-2.8,4.4-2.8,7.2v20c0,2.8,0.9,5.2,2.8,7.2s4.2,3,6.8,3c2.6,0,4.9-1,6.8-3
		C1539.8,648.8,1540.8,646.4,1540.8,643.6z"/>
	<rect x="1159.3" class="st1" width="151.7" height="535.5"/>
	<polygon class="st2" points="1598.7,535.5 1446.3,535.5 1159.3,0 1311.7,0 	"/>
	<rect x="1449.2" class="st1" width="151.7" height="535.5"/>
	<rect x="1159.3" class="st1" width="151.7" height="535.5"/>
	<linearGradient id="SVGID_1_" gradientUnits="userSpaceOnUse" x1="1159.3" y1="267.75" x2="1598.7001" y2="267.75">
		<stop  offset="0" style="stop-color:#FFFFFF"/>
		<stop  offset="1" style="stop-color:#1D1D1B"/>
	</linearGradient>
	<polygon class="st3" points="1598.7,535.5 1446.3,535.5 1159.3,0 1311.7,0 	"/>
	<rect x="1449.2" class="st1" width="151.7" height="535.5"/>
	
		<linearGradient id="SVGID_00000039852167297744334110000003111727758945242530_" gradientUnits="userSpaceOnUse" x1="1449.2001" y1="267.75" x2="1849.5" y2="267.75">
		<stop  offset="0" style="stop-color:#FFFFFF"/>
		<stop  offset="1" style="stop-color:#1D1D1B"/>
	</linearGradient>
	<polygon style="fill:url(#SVGID_00000039852167297744334110000003111727758945242530_);" points="1847.8,535.5 1736.2,535.5 
		1449.2,0 1601.6,0 1849.5,462.4 	"/>
	
		<linearGradient id="SVGID_00000162315506603492083810000012478470577352708741_" gradientUnits="userSpaceOnUse" x1="415.7224" y1="-117.3471" x2="-46.1227" y2="407.1211">
		<stop  offset="0.4153" style="stop-color:#FFFFFF"/>
		<stop  offset="0.9956" style="stop-color:#8C8C8C"/>
	</linearGradient>
	<path style="fill:url(#SVGID_00000162315506603492083810000012478470577352708741_);" d="M143.5,535.5H9.7c-5,0-9-4-9-9V9
		c0-5,4-9,9-9h133.8c5,0,9,4,9,9v517.6C152.5,531.5,148.5,535.5,143.5,535.5z"/>
	
		<linearGradient id="SVGID_00000145034359609751255780000010182207899361309090_" gradientUnits="userSpaceOnUse" x1="519.99" y1="14.4673" x2="85.1623" y2="508.2546">
		<stop  offset="0.4153" style="stop-color:#FFFFFF"/>
		<stop  offset="0.9956" style="stop-color:#8C8C8C"/>
	</linearGradient>
	<rect x="221.1" style="fill:url(#SVGID_00000145034359609751255780000010182207899361309090_);" width="151.7" height="535.5"/>
	
		<linearGradient id="SVGID_00000052084359442548206510000009192281346581981617_" gradientUnits="userSpaceOnUse" x1="644.1275" y1="123.7823" x2="209.2999" y2="617.5696">
		<stop  offset="0.4153" style="stop-color:#FFFFFF"/>
		<stop  offset="0.9956" style="stop-color:#8C8C8C"/>
	</linearGradient>
	<rect x="441.5" style="fill:url(#SVGID_00000052084359442548206510000009192281346581981617_);" width="151.7" height="535.5"/>
	
		<linearGradient id="SVGID_00000066484742407878531880000008608227091290405805_" gradientUnits="userSpaceOnUse" x1="412.2992" y1="-80.365" x2="-22.5285" y2="413.4222">
		<stop  offset="0.4153" style="stop-color:#FFFFFF"/>
		<stop  offset="0.9956" style="stop-color:#8C8C8C"/>
	</linearGradient>
	<rect x="59" style="fill:url(#SVGID_00000066484742407878531880000008608227091290405805_);" width="93.5" height="535.5"/>
	
		<linearGradient id="SVGID_00000029037352452937773760000011535200354650991025_" gradientUnits="userSpaceOnUse" x1="482.9522" y1="-18.1482" x2="48.1245" y2="475.6391">
		<stop  offset="0.4153" style="stop-color:#FFFFFF"/>
		<stop  offset="0.9956" style="stop-color:#8C8C8C"/>
	</linearGradient>
	<rect y="418.9" style="fill:url(#SVGID_00000029037352452937773760000011535200354650991025_);" width="93.5" height="116.6"/>
	<path class="st1" d="M1880.7,0L1880.7,0h-131.5l0,0h-10.1v10.1v515.3v10.1h10.1h83.4h48.1c5.6,0,10.1-4.5,10.1-10.1V345.3V10.1V0
		H1880.7z"/>
	
		<linearGradient id="SVGID_00000006710299267761659490000011666954493939405228_" gradientUnits="userSpaceOnUse" x1="778.0612" y1="-28.9187" x2="1003.7199" y2="684.3243">
		<stop  offset="0" style="stop-color:#30548F"/>
		<stop  offset="0.2651" style="stop-color:#004977"/>
		<stop  offset="0.5381" style="stop-color:#00B9ED"/>
		<stop  offset="0.7636" style="stop-color:#2C4986"/>
		<stop  offset="1" style="stop-color:#5B8AAE"/>
	</linearGradient>
	<path style="fill:url(#SVGID_00000006710299267761659490000011666954493939405228_);" d="M952.7,0c66.9,44.5,111,120.6,111,206.9
		c0,137.1-111.2,248.3-248.3,248.3c-86.4,0-162.5-44.1-206.9-111c35.1,110.9,138.9,191.3,261.4,191.3
		c151.4,0,274.2-122.7,274.2-274.1C1144,138.8,1063.6,35.1,952.7,0z"/>
</g>
</svg>
