<?xml version="1.0" encoding="utf-8"?>
<!-- Generator: Adobe Illustrator 27.1.1, SVG Export Plug-In . SVG Version: 6.00 Build 0)  -->
<svg version="1.1" id="Layer_1" xmlns="http://www.w3.org/2000/svg" xmlns:xlink="http://www.w3.org/1999/xlink" x="0px" y="0px"
	 viewBox="0 0 1066.6 833.4" style="enable-background:new 0 0 1066.6 833.4;" xml:space="preserve">
<style type="text/css">
	.st0{fill:url(#SVGID_1_);}
	.st1{fill:url(#SVGID_00000023997440142436883610000011692280490835873425_);}
	.st2{fill:url(#SVGID_00000116228989146467885600000009283123409859579324_);}
	.st3{fill:url(#SVGID_00000076602604144978654460000015524282406113795222_);}
	.st4{fill:url(#SVGID_00000000206640962949644770000013742372839594090121_);}
	.st5{fill:#323232;}
	.st6{font-family:'Mada-Black';}
	.st7{font-size:250.5867px;}
</style>
<g id="Layer_1_00000055669795945637279150000000023204353407724677_">
	<g>
		
			<linearGradient id="SVGID_1_" gradientUnits="userSpaceOnUse" x1="607.6313" y1="379.6912" x2="-26.3158" y2="1099.5972" gradientTransform="matrix(1 0 0 1 0 -490.6087)">
			<stop  offset="0.4153" style="stop-color:#1D1D1B"/>
			<stop  offset="0.9956" style="stop-color:#4C4C4B"/>
		</linearGradient>
		<path class="st0" d="M236.9,783.8H47.4c-5,0-9-4-9-9V60.6c0-5,4-9,9-9h189.5c5,0,9,4,9,9v714.2
			C245.9,779.7,241.9,783.8,236.9,783.8z"/>
		
			<linearGradient id="SVGID_00000066516138775764080320000002194332933248690353_" gradientUnits="userSpaceOnUse" x1="748.3293" y1="561.0331" x2="153.854" y2="1236.1151" gradientTransform="matrix(1 0 0 1 0 -490.6087)">
			<stop  offset="0.4153" style="stop-color:#1D1D1B"/>
			<stop  offset="0.9956" style="stop-color:#4C4C4B"/>
		</linearGradient>
		
			<rect x="339.7" y="50.6" style="fill:url(#SVGID_00000066516138775764080320000002194332933248690353_);" width="207.4" height="732.2"/>
		
			<linearGradient id="SVGID_00000140711006116684803040000016892905555692005774_" gradientUnits="userSpaceOnUse" x1="918.0327" y1="710.4733" x2="323.5573" y2="1385.5555" gradientTransform="matrix(1 0 0 1 0 -490.6087)">
			<stop  offset="0.4153" style="stop-color:#1D1D1B"/>
			<stop  offset="0.9956" style="stop-color:#4C4C4B"/>
		</linearGradient>
		
			<rect x="641" y="50.6" style="fill:url(#SVGID_00000140711006116684803040000016892905555692005774_);" width="207.4" height="732.2"/>
		
			<linearGradient id="SVGID_00000154412765227298601670000008670800271289749435_" gradientUnits="userSpaceOnUse" x1="601.0476" y1="432.3275" x2="6.5723" y2="1107.4097" gradientTransform="matrix(1 0 0 1 0 -490.6087)">
			<stop  offset="0.4153" style="stop-color:#1D1D1B"/>
			<stop  offset="0.9956" style="stop-color:#4C4C4B"/>
		</linearGradient>
		
			<rect x="118" y="51.6" style="fill:url(#SVGID_00000154412765227298601670000008670800271289749435_);" width="127.8" height="732.2"/>
		
			<linearGradient id="SVGID_00000048484504384843008750000015806987432663462821_" gradientUnits="userSpaceOnUse" x1="698.6766" y1="517.4175" x2="104.2013" y2="1192.4996" gradientTransform="matrix(1 0 0 1 0 -490.6087)">
			<stop  offset="0.4153" style="stop-color:#1D1D1B"/>
			<stop  offset="0.9956" style="stop-color:#4C4C4B"/>
		</linearGradient>
		
			<rect x="38.4" y="624.3" style="fill:url(#SVGID_00000048484504384843008750000015806987432663462821_);" width="127.8" height="159.5"/>
		<path class="st5" d="M1027.3,694.3c0,14-3.1,26.9-9.4,38.7c-6.3,11.8-15.3,21.4-27.1,28.6c-11.8,7.2-25.8,10.8-42.1,10.8
			s-30.3-3.6-41.9-10.8c-11.6-7.2-20.5-16.7-26.6-28.6c-6.1-11.8-9.2-24.7-9.2-38.7s3.1-26.9,9.3-38.7s15.1-21.4,26.6-28.6
			c11.5-7.2,25.5-10.8,41.8-10.8s30.4,3.6,42.1,10.8c11.8,7.2,20.8,16.7,27.1,28.6C1024.1,667.5,1027.3,680.4,1027.3,694.3z
			 M1011.3,694.3c0-17.3-5.7-31.6-17.2-43.1c-11.4-11.4-26.6-17.2-45.4-17.2s-33.8,5.7-44.9,17.2c-11.1,11.5-16.7,25.8-16.7,43.1
			s5.6,31.6,16.7,43.1c11.1,11.5,26.1,17.2,44.9,17.2s34-5.7,45.4-17.2C1005.5,725.9,1011.3,711.6,1011.3,694.3z M995.3,691
			c0,13.6-4.2,24.8-12.5,33.5s-19.5,13.1-33.6,13.1c-13.8,0-24.9-4.7-33.2-14.1c-8.3-9.4-12.5-20.1-12.5-32c0-7.5,1.4-13.8,4.2-18.8
			s6.1-9.4,9.9-13.2l16.5,14.8c-5,4.7-7.5,9.5-7.5,14.4c0,6.9,2.2,12,6.7,15.4s9.8,5.1,15.9,5.1c7.1,0,12.7-1.7,16.8-5.1
			c4.2-3.4,6.2-8,6.2-14c0-3.4-0.6-6.4-1.9-8.9c-1.3-2.5-3-5.2-5.2-8l18.4-12.7c3.5,4.4,6.3,9.1,8.5,14.2
			C994.2,679.8,995.3,685.2,995.3,691z"/>
	</g>
</g>
<text transform="matrix(6.123234e-17 -1 1 6.123234e-17 1028.2 585.2764)" class="st5 st6 st7">2023</text>
</svg>
